External Loads File
version=1
nRows=31
nColumns=13
Range=5.000000e-03-10 seconds
endheader
time 	forceRightX 	forceRightY 	forceRightZ 	pointRightX 	pointRightY 	pointRightZ 	forceLeftX 	forceLeftY 	forceLeftZ 	pointLeftX 	pointLeftY 	pointLeftZ 		
5.005000 30.362658 -132.866620 -0.000000 0.121447 0.241610 -0.162634 -284.690029 601.391420 -0.000000 0.378132 0.385781 -0.415118
5.010000 30.454465 -120.983484 -0.000000 0.118167 0.251387 -0.162611 -298.149403 629.731308 -0.000000 0.381153 0.375593 -0.414954
5.015000 32.133761 -106.810109 -0.000000 0.115393 0.261337 -0.162652 -309.241533 652.698647 -0.000000 0.383687 0.365176 -0.414833
5.020000 34.850628 -91.339849 -0.000000 0.113138 0.271843 -0.162809 -317.620788 671.584922 -0.000000 0.385767 0.354744 -0.414646
5.025000 38.247537 -75.500850 -0.000000 0.111392 0.282581 -0.163063 -323.492350 687.585432 -0.000000 0.387364 0.344088 -0.414433
5.030000 41.991266 -60.122449 -0.000000 0.110261 0.293520 -0.163376 -326.892038 701.903573 -0.000000 0.388374 0.333211 -0.414377
5.035000 45.783119 -45.844548 -0.000000 0.109697 0.304564 -0.163668 -328.054726 715.400022 -0.000000 0.388791 0.322282 -0.414319
5.040000 49.279312 -33.128182 -0.000000 0.109426 0.315748 -0.164362 -326.527525 728.901871 -0.000000 0.388515 0.311367 -0.414302
5.045000 52.161617 -22.284755 -0.000000 0.109976 0.327075 -0.164881 -321.052184 743.240127 -0.000000 0.387653 0.300194 -0.414443
5.050000 54.254258 -13.351877 -0.000000 0.111133 0.338516 -0.165461 -311.921822 758.257821 -0.000000 0.386190 0.289054 -0.414632
5.055000 55.420594 -6.146349 -0.000000 0.112776 0.349853 -0.166191 -300.164456 773.284443 -0.000000 0.384198 0.278218 -0.414683
5.060000 55.543042 -0.486700 -0.000000 0.115149 0.361294 -0.166893 -284.489897 788.384091 -0.000000 0.381496 0.267600 -0.414592
5.065000 54.617891 3.997969 -0.000000 0.118041 0.372945 -0.167663 -264.610857 803.049544 -0.000000 0.378223 0.257158 -0.414481
5.070000 52.736148 7.909826 -0.000000 0.121655 0.383616 -0.168422 -243.338887 815.794724 -0.000000 0.374305 0.246925 -0.414335
5.075000 50.136382 11.437484 -0.000000 0.125805 0.394321 -0.168985 -218.736438 826.786255 -0.000000 0.369888 0.236937 -0.414179
5.080000 47.128588 14.751214 -0.000000 0.130793 0.404770 -0.169490 -191.331191 835.471399 -0.000000 0.364889 0.227205 -0.413976
5.085000 43.989548 17.856692 -0.000000 0.136293 0.414723 -0.169633 -162.781988 841.284065 -0.000000 0.359342 0.217770 -0.413849
5.090000 40.906868 20.577017 -0.000000 0.142126 0.424213 -0.170173 -134.306981 843.971516 -0.000000 0.353305 0.208836 -0.413674
5.095000 37.995978 22.602852 -0.000000 0.148862 0.433214 -0.170405 -104.981491 843.594597 -0.000000 0.346803 0.200259 -0.413470
5.100000 35.202375 23.792367 -0.000000 0.155911 0.441785 -0.170732 -76.366814 839.766288 -0.000000 0.339875 0.192131 -0.413256
5.105000 32.414121 24.031491 -0.000000 0.163252 0.449875 -0.170943 -49.130022 832.346298 -0.000000 0.332528 0.184613 -0.413044
5.110000 29.510878 23.241991 -0.000000 0.171181 0.457500 -0.171241 -22.418124 821.307721 -0.000000 0.324801 0.177460 -0.412889
5.115000 26.286359 21.534743 -0.000000 0.179622 0.464076 -0.171586 2.621874 806.490225 -0.000000 0.316713 0.170858 -0.412707
5.120000 22.625558 19.056945 -0.000000 0.188727 0.470384 -0.171371 27.227301 787.803207 -0.000000 0.308311 0.164890 -0.412604
5.125000 18.412029 16.116695 -0.000000 0.197915 0.475888 -0.171711 49.715356 765.254083 -0.000000 0.299599 0.159616 -0.412543
5.130000 13.676772 12.904479 -0.000000 0.207731 0.480669 -0.171916 71.454466 738.850115 -0.000000 0.290698 0.154855 -0.412439
5.135000 8.443208 9.586167 -0.000000 0.217486 0.484778 -0.171979 91.150420 708.926109 -0.000000 0.281540 0.150887 -0.412432
5.140000 2.820315 6.177884 -0.000000 0.227815 0.488090 -0.172081 110.361516 675.754227 -0.000000 0.272157 0.147391 -0.412365
5.145000 -3.066724 2.631051 -0.000000 0.238403 0.490752 -0.172145 128.654368 639.914793 -0.000000 0.262437 0.144686 -0.412356
5.150000 -8.999280 -1.195434 -0.000000 0.249147 0.492919 -0.172187 145.233126 601.979757 -0.000000 0.252757 0.142699 -0.412202
5.155000 -14.655037 -5.432949 -0.000000 0.259886 0.494269 -0.172200 160.222808 562.013927 -0.000000 0.242869 0.141369 -0.411903
